<svg xmlns="http://www.w3.org/2000/svg" version="1.1" xmlns:xlink="http://www.w3.org/1999/xlink" xmlns:svgjs="http://svgjs.dev/svgjs" width="2000" height="1500" viewBox="0 0 2000 1500"><rect width="2000" height="1500" fill="#0d318b"></rect><g transform="matrix(0.75,0,0,0.75,250.4352137148246,276.7585020242915)"><svg viewBox="0 0 391 247" data-background-color="#0d318b" preserveAspectRatio="xMidYMid meet" height="1263" width="2000" xmlns="http://www.w3.org/2000/svg" xmlns:xlink="http://www.w3.org/1999/xlink"><g id="tight-bounds" transform="matrix(1,0,0,1,-0.11344504797159516,-0.09999999999999432)"><svg viewBox="0 0 391.2268907563025 247.2" height="247.2" width="391.2268907563025"><g><svg viewBox="0 0 391.2268907563025 247.2" height="247.2" width="391.2268907563025"><g><svg viewBox="0 0 391.2268907563025 247.2" height="247.2" width="391.2268907563025"><g id="textblocktransform"><svg viewBox="0 0 391.2268907563025 247.2" height="247.2" width="391.2268907563025" id="textblock"><g><svg viewBox="0 0 391.2268907563025 247.2" height="247.2" width="391.2268907563025"><g transform="matrix(1,0,0,1,0,0)"><svg width="391.2268907563025" viewBox="-2.0999999046325684 -35.20000076293945 56.5 35.70000076293945" height="247.2" data-palette-color="#f8fc4d"><path d="M21.2 0.5Q18.85 0.5 18.3-2.9L18.3-2.9Q17.85-5.65 17.85-12.75L17.85-12.75 16.6-11.8 10.5-11.8Q9.35-8.85 7.83-6.5 6.3-4.15 4.6-3L4.6-3 4.6-2.9Q5.25-2.6 5.85-2.6L5.85-2.6Q6.6-2.6 7.28-2.85 7.95-3.1 8.1-3.1L8.1-3.1Q8.45-3.1 8.45-2.85L8.45-2.85Q8.45-2.5 7.75-1.65L7.75-1.65Q6.95-0.85 6.05-0.43 5.15 0 4.35 0L4.35 0Q3.7 0 2.5-0.4L2.5-0.4Q1.3-0.8 0.7-0.8L0.7-0.8Q-0.05-0.8-0.83-0.4-1.6 0-1.85 0L-1.85 0Q-2.1 0-2.1-0.25L-2.1-0.25Q-2.1-0.75-1.7-1.43-1.3-2.1-0.75-2.35L-0.75-2.35Q-0.45-2.5-0.18-2.55 0.1-2.6 0.5-2.75L0.5-2.75Q2.45-3.5 3.93-5.48 5.4-7.45 6.45-9.93 7.5-12.4 8.85-16.25L8.85-16.25Q10.4-20.6 11.53-23.33 12.65-26.05 14.2-28.38 15.75-30.7 17.75-32L17.75-32 17.75-32.05Q17.05-32.15 16.7-32.25L16.7-32.25Q16.5-32.3 15.48-32.45 14.45-32.6 12.85-32.6L12.85-32.6Q10.15-32.6 8.33-31.6 6.5-30.6 4.9-28.35L4.9-28.35Q4.4-27.55 4.1-27.55L4.1-27.55Q3.8-27.55 3.8-27.95L3.8-27.95 3.85-28.45Q4.6-31.5 7.28-33.35 9.95-35.2 13.5-35.2L13.5-35.2Q14.95-35.2 17.85-34.7L17.85-34.7Q20.55-34.2 21.7-34.2L21.7-34.2Q23-34.2 24.45-34.7L24.45-34.7 24.45-34.65Q23.1-32.4 22.35-27.63 21.6-22.85 21.6-15.8L21.6-15.8Q21.6-8.55 21.9-6L21.9-6Q22-4.55 22.33-3.83 22.65-3.1 23.45-3.1L23.45-3.1Q23.95-3.1 24.43-3.35 24.9-3.6 25.7-4.1L25.7-4.1Q26.65-4.75 26.9-4.75L26.9-4.75Q27.2-4.75 27.2-4.55L27.2-4.55Q27.2-4.15 26.9-3.6L26.9-3.6Q25.95-1.9 24.33-0.7 22.7 0.5 21.2 0.5L21.2 0.5ZM11.4-14.8L17.9-14.8Q18-19.4 18.55-23.93 19.1-28.45 19.95-31.3L19.95-31.3 19.9-31.3Q17.95-30.4 16.13-26.95 14.3-23.5 11.95-16.5L11.95-16.5 11.4-14.8ZM29.85 0Q29.55 0 29.55-0.35L29.55-0.35Q29.55-1.4 30.7-2.4L30.7-2.4Q31.55-3.2 31.97-3.83 32.4-4.45 32.72-5.53 33.05-6.6 33.4-8.75L33.4-8.75 37.1-31.55 36.9-31.55Q34.5-31.55 33.27-31.05 32.05-30.55 31.4-30.03 30.75-29.5 30.6-29.5L30.6-29.5Q30.3-29.5 30.3-29.95L30.3-29.95Q30.3-30.4 30.45-30.7L30.45-30.7Q31-32.45 33.15-33.58 35.3-34.7 39.05-34.7L39.05-34.7Q40.8-34.7 43.4-34.45L43.4-34.45Q47.4-34.2 48.2-34.2L48.2-34.2Q51.1-34.2 52.47-34.7 53.85-35.2 54.05-35.2L54.05-35.2Q54.25-35.2 54.32-35.13 54.4-35.05 54.4-34.85L54.4-34.85Q54.4-34.25 53.62-33.4 52.85-32.55 51.25-31.9 49.65-31.25 47.3-31.25L47.3-31.25Q46.4-31.25 45.57-31.3 44.75-31.35 44.1-31.4L44.1-31.4Q41.8-31.6 40.85-31.6L40.85-31.6 38.9-19.55 48.3-19.55Q48.7-19.55 48.7-19.2L48.7-19.2Q48.7-18.85 48.07-18.03 47.45-17.2 46.52-16.53 45.6-15.85 44.75-15.85L44.75-15.85Q44.5-15.85 43.5-16.05L43.5-16.05Q41.7-16.5 40.15-16.5L40.15-16.5 38.5-16.5 36.8-6.7Q36.7-5.85 36.37-5.05 36.05-4.25 35.7-3.85L35.7-3.85 35.7-3.8Q36.75-3.5 38.25-3.33 39.75-3.15 41.05-3.15L41.05-3.15Q45.5-3.15 48.95-5.35L48.95-5.35Q49.1-5.4 49.27-5.5 49.45-5.6 49.6-5.6L49.6-5.6Q49.95-5.6 49.95-5.1L49.95-5.1Q49.95-4.05 48.6-2.85 47.25-1.65 45.15-0.83 43.05 0 40.85 0L40.85 0Q39.35 0 36.25-0.5L36.25-0.5Q33.95-0.85 33.05-0.85L33.05-0.85Q32-0.85 31.05-0.43 30.1 0 29.85 0L29.85 0Z" opacity="1" transform="matrix(1,0,0,1,0,0)" fill="#f8fc4d" class="undefined-text-0" data-fill-palette-color="primary" id="text-0"></path></svg></g></svg></g></svg></g></svg></g></svg></g><defs></defs></svg><rect width="391.2268907563025" height="247.2" fill="none" stroke="none" visibility="hidden"></rect></g></svg></g></svg>